<?xml version="1.0"?>
<svg xmlns="http://www.w3.org/2000/svg" xmlns:xlink="http://www.w3.org/1999/xlink" version="1.1" id="Capa_1" x="0px" y="0px" viewBox="0 0 480 480" style="enable-background:new 0 0 480 480;" xml:space="preserve" width="512px" height="512px" class=""><g><g>
	<g>
		<g>
			<path d="M256.48,64v8h-16c-4.418,0-8,3.582-8,8s3.582,8,8,8h8v112h-8c-4.418,0-8,3.582-8,8s3.582,8,8,8h16v8c0,4.418,3.582,8,8,8     s8-3.582,8-8v-8h16v8c0,4.418,3.582,8,8,8s8-3.582,8-8v-8c22.025,0.063,39.931-17.74,39.995-39.765     c0.037-12.721-5.997-24.696-16.243-32.235c17.74-13.054,21.538-38.018,8.483-55.757C329.175,77.997,317.2,71.963,304.48,72v-8     c0-4.418-3.582-8-8-8s-8,3.582-8,8v8h-16v-8c0-4.418-3.582-8-8-8S256.48,59.582,256.48,64z M264.48,88h40     c13.255,0,24,10.745,24,24s-10.745,24-24,24h-40V88z M264.48,152h40c13.255,0,24,10.745,24,24s-10.745,24-24,24h-40V152z" data-original="#000000" class="active-path" data-old_color="#000000" fill="#54C58F"/>
			<path d="M277.736,247.472c-7.225-0.744-14.352-2.243-21.264-4.472c-3.947-1.045-8.047,1.05-9.514,4.861     c-1.587,4.124,0.47,8.753,4.594,10.339c7.981,2.574,16.21,4.303,24.552,5.16c0.266,0.031,0.533,0.047,0.8,0.048l0.032,0.064     c4.418,0.221,8.179-3.182,8.4-7.6C285.557,251.454,282.154,247.693,277.736,247.472z" data-original="#000000" class="active-path" data-old_color="#000000" fill="#54C58F"/>
			<path d="M378.88,85.832c-0.009,0-0.018-0.002-0.028-0.002c-0.007,0-0.013,0.002-0.02,0.002H378.88z" data-original="#000000" class="active-path" data-old_color="#000000" fill="#54C58F"/>
			<path d="M383.36,101.336c2.983,6.619,5.26,13.535,6.792,20.632c0.794,3.68,4.047,6.308,7.812,6.312     c0.572-0.002,1.142-0.064,1.701-0.184c4.315-0.934,7.058-5.188,6.128-9.504c-1.773-8.196-4.401-16.184-7.84-23.832     c-1.816-4.029-6.555-5.824-10.584-4.008C383.338,92.568,381.544,97.307,383.36,101.336z" data-original="#000000" class="active-path" data-old_color="#000000" fill="#54C58F"/>
			<path d="M357.816,66.464c5.414,4.847,10.31,10.244,14.608,16.104c1.503,2.047,3.89,3.256,6.428,3.262     c1.691-0.005,3.338-0.545,4.702-1.545c3.564-2.611,4.337-7.617,1.725-11.181c-4.944-6.75-10.574-12.97-16.8-18.56     c-0.106-0.101-0.215-0.198-0.327-0.293c-3.372-2.854-8.42-2.435-11.275,0.938C354.023,58.562,354.443,63.609,357.816,66.464z" data-original="#000000" class="active-path" data-old_color="#000000" fill="#54C58F"/>
			<path d="M358.192,221.28c-5.404,4.869-11.303,9.159-17.6,12.8c-2.463,1.429-3.981,4.059-3.986,6.906     c-0.008,4.418,3.568,8.006,7.986,8.014l-0.032-0.024c1.433,0.026,2.846-0.339,4.088-1.056c7.251-4.2,14.043-9.147,20.264-14.76     c3.281-2.96,3.54-8.019,0.58-11.3S361.472,218.32,358.192,221.28z" data-original="#000000" class="active-path" data-old_color="#000000" fill="#54C58F"/>
			<path d="M320.728,242.936c-6.903,2.244-14.022,3.759-21.24,4.52c-4.029,0.442-7.091,3.827-7.128,7.88     c-0.04,4.418,3.509,8.032,7.928,8.072v-0.024c0.272,0,0.552-0.016,0.864-0.032c8.336-0.876,16.557-2.624,24.528-5.216     c0.212-0.06,0.422-0.128,0.629-0.205c4.141-1.541,6.248-6.147,4.707-10.288C329.475,243.502,324.869,241.395,320.728,242.936z" data-original="#000000" class="active-path" data-old_color="#000000" fill="#54C58F"/>
			<path d="M392.48,144c-0.001,7.266-0.754,14.513-2.248,21.624c0,0,0,0,0,0.001c-0.912,4.323,1.853,8.567,6.176,9.479     c0.545,0.111,1.1,0.167,1.656,0.168h0.016c3.773-0.009,7.027-2.653,7.808-6.344c1.725-8.197,2.593-16.551,2.592-24.928v-0.464     c0-0.052-0.001-0.103-0.002-0.154c-0.106-4.311-3.687-7.72-7.998-7.614C396.019,135.881,392.465,139.538,392.48,144z" data-original="#000000" class="active-path" data-old_color="#000000" fill="#54C58F"/>
			<path d="M394.096,182.232c-4.036-1.8-8.768,0.012-10.568,4.048c-2.96,6.637-6.607,12.946-10.88,18.824     c-0.992,1.365-1.528,3.009-1.529,4.697c-0.004,4.418,3.575,8.003,7.993,8.007c2.565,0.001,4.974-1.228,6.48-3.304     c4.929-6.777,9.136-14.052,12.552-21.704C399.944,188.764,398.132,184.032,394.096,182.232z" data-original="#000000" class="active-path" data-old_color="#000000" fill="#54C58F"/>
			<path d="M236.592,234.216c-6.295-3.644-12.193-7.934-17.6-12.8c-0.06-0.056-0.122-0.111-0.184-0.165     c-3.333-2.901-8.386-2.55-11.287,0.783c-2.901,3.333-2.55,8.386,0.783,11.287c6.235,5.596,13.034,10.529,20.288,14.72     c1.215,0.705,2.595,1.075,4,1.072l0,0.032c2.858,0,5.499-1.525,6.928-4C241.729,241.318,240.418,236.425,236.592,234.216z" data-original="#000000" class="active-path" data-old_color="#000000" fill="#54C58F"/>
			<polygon points="397.968,128.28 397.963,128.28 397.96,128.28    " data-original="#000000" class="active-path" data-old_color="#000000" fill="#54C58F"/>
			<path d="M178.944,175.52c0.565,0.001,1.128-0.059,1.681-0.177c4.321-0.923,7.075-5.175,6.151-9.495     c-1.514-7.101-2.283-14.34-2.296-21.6c0-4.418-3.582-8-8-8s-8,3.582-8,8c0.012,8.376,0.9,16.728,2.648,24.92     c0.785,3.691,4.042,6.332,7.816,6.336V175.52z" data-original="#000000" class="active-path" data-old_color="#000000" fill="#54C58F"/>
			<path d="M202.692,216.435c3.567-2.607,4.346-7.612,1.739-11.179c-4.284-5.863-7.941-12.159-10.912-18.784     c-1.835-3.87-6.392-5.609-10.339-3.944c-4.071,1.717-5.979,6.41-4.261,10.48c3.426,7.649,7.643,14.918,12.584,21.688     c1.509,2.065,3.914,3.284,6.472,3.28C199.672,217.975,201.323,217.436,202.692,216.435z" data-original="#000000" class="active-path" data-old_color="#000000" fill="#54C58F"/>
			<path d="M177.224,128.784c0.54,0.111,1.089,0.167,1.64,0.168h0.016c3.778-0.01,7.034-2.662,7.808-6.36     c1.49-7.104,3.721-14.033,6.656-20.672c0.029-0.064,0.058-0.128,0.086-0.193c1.738-4.062-0.146-8.764-4.207-10.502     c-4.062-1.738-8.764,0.146-10.502,4.208c-3.395,7.671-5.974,15.678-7.696,23.888c0,0,0,0,0,0     C170.122,123.646,172.898,127.883,177.224,128.784z" data-original="#000000" class="active-path" data-old_color="#000000" fill="#54C58F"/>
			<path d="M320.28,44.936c6.913,2.225,13.571,5.175,19.864,8.8c1.216,0.702,2.596,1.069,4,1.064l-0.024-0.024     c2.869,0.005,5.52-1.526,6.95-4.014c2.202-3.831,0.881-8.721-2.95-10.922c-7.274-4.17-14.964-7.57-22.944-10.144     c-4.208-1.352-8.716,0.964-10.068,5.172C313.756,39.076,316.071,43.584,320.28,44.936z" data-original="#000000" class="active-path" data-old_color="#000000" fill="#54C58F"/>
			<path d="M276.424,40.64c0.307,0.002,0.615-0.014,0.92-0.048c7.224-0.757,14.507-0.779,21.736-0.064     c4.396,0.442,8.318-2.764,8.76-7.16s-2.764-8.318-7.16-8.76c-8.333-0.829-16.729-0.802-25.056,0.08     c-4.029,0.442-7.091,3.827-7.128,7.88C268.456,36.986,272.006,40.6,276.424,40.64z" data-original="#000000" class="active-path" data-old_color="#000000" fill="#54C58F"/>
			<path d="M197.696,86.4c2.568,0.004,4.981-1.225,6.488-3.304c4.261-5.888,9.124-11.314,14.512-16.192     c0.01-0.009,0.02-0.018,0.03-0.027c3.267-2.975,3.503-8.035,0.528-11.301c-2.975-3.267-8.035-3.503-11.301-0.528     c-6.209,5.624-11.815,11.879-16.728,18.664c-0.984,1.361-1.515,2.998-1.518,4.678C189.7,82.808,193.277,86.394,197.696,86.4z" data-original="#000000" class="active-path" data-old_color="#000000" fill="#54C58F"/>
			<path d="M232.216,55.144c1.422,0.004,2.819-0.372,4.048-1.088c6.279-3.652,12.923-6.636,19.824-8.904     c0.063-0.02,0.127-0.041,0.19-0.062c4.18-1.431,6.409-5.98,4.978-10.16c-1.431-4.18-5.98-6.409-10.16-4.978     c-7.965,2.614-15.634,6.057-22.88,10.272c-2.463,1.429-3.981,4.059-3.986,6.906C224.222,51.548,227.797,55.136,232.216,55.144z" data-original="#000000" class="active-path" data-old_color="#000000" fill="#54C58F"/>
			<path d="M288.48,288c79.491-0.093,143.907-64.509,144-144c0-79.529-64.471-144-144-144s-144,64.471-144,144     S208.951,288,288.48,288z M288.48,16c70.658,0.084,127.916,57.342,128,128c0,70.692-57.308,128-128,128s-128-57.308-128-128     S217.787,16,288.48,16z" data-original="#000000" class="active-path" data-old_color="#000000" fill="#54C58F"/>
			<path d="M475.24,327.2c-8.912-15.212-28.397-20.432-43.72-11.712L347.488,364c-1.632-13.262-11.224-24.168-24.168-27.48     l-75.296-13.32c-10.771-2.455-21.148-6.397-30.832-11.712c-19.973-10.393-42.197-15.712-64.712-15.488     c-22.13-0.315-43.998,4.814-63.68,14.936c-7.6,4-15.823,6.683-24.32,7.936V296c0-4.418-3.582-8-8-8h-48c-4.418,0-8,3.582-8,8v176     c0,4.418,3.582,8,8,8h48c4.418,0,8-3.582,8-8v-24h20.24c7.193,0.01,14.371,0.663,21.448,1.952l159.2,28.888     c5.576,0.978,11.319-0.027,16.232-2.84l181.92-105.04c9.952-5.672,16.069-16.273,16-27.728     C479.52,337.606,478.044,332.078,475.24,327.2z M48.48,464h-32V304h32V464z M455.52,357.072L273.56,462.136     c-1.644,0.926-3.555,1.262-5.416,0.952l-159.12-28.88c-8.019-1.458-16.153-2.197-24.304-2.208H64.48v-97.064     c11.13-1.34,21.924-4.69,31.856-9.888c17.388-8.816,36.651-13.293,56.144-13.048c19.826-0.241,39.407,4.391,57.024,13.488     c11.095,6.083,22.99,10.575,35.336,13.344l75,13.296c8.537,2.282,13.608,11.052,11.326,19.589     c-0.005,0.017-0.009,0.034-0.014,0.051c-0.356,1.324-0.894,2.592-1.6,3.768v0.064h-0.04c-3.742,6.096-10.979,9.095-17.936,7.432     c-0.3-0.081-0.604-0.143-0.912-0.184l-101.04-14.8c-4.351-0.768-8.501,2.136-9.269,6.487c-0.768,4.351,2.136,8.501,6.487,9.269     c0.153,0.027,0.308,0.05,0.462,0.068l100.616,14.744c2.524,0.621,5.113,0.935,7.712,0.936h0.112     c10.547-0.003,20.409-5.227,26.336-13.952l97.408-56.256c7.642-4.436,17.434-1.837,21.87,5.806     c1.419,2.445,2.165,5.223,2.162,8.05C463.557,348.93,460.498,354.234,455.52,357.072z" data-original="#000000" class="active-path" data-old_color="#000000" fill="#54C58F"/>
		</g>
	</g>
</g></g> </svg>
